<?xml version="1.0" standalone="no"?>
<!DOCTYPE svg PUBLIC "-//W3C//DTD SVG 20010904//EN"
 "http://www.w3.org/TR/2001/REC-SVG-20010904/DTD/svg10.dtd">
<svg version="1.0" xmlns="http://www.w3.org/2000/svg"
 width="124.000000pt" height="124.000000pt" viewBox="0 0 124.000000 124.000000"
 preserveAspectRatio="xMidYMid meet">

<g transform="translate(0.000000,124.000000) scale(0.100000,-0.100000)"
fill="#000000" stroke="none">
<path d="M0 1176 l0 -64 34 34 34 34 552 0 552 0 34 -34 34 -34 0 64 0 64
-620 0 -620 0 0 -64z"/>
<path d="M0 840 l0 -168 34 34 34 34 552 0 552 0 34 -34 34 -34 0 168 0 168
-34 -34 -34 -34 -552 0 -552 0 -34 34 -34 34 0 -168z"/>
<path d="M0 400 l0 -168 34 34 34 34 552 0 552 0 34 -34 34 -34 0 168 0 168
-34 -34 -34 -34 -552 0 -552 0 -34 34 -34 34 0 -168z"/>
<path d="M0 64 l0 -64 620 0 620 0 0 64 0 64 -34 -34 -34 -34 -552 0 -552 0
-34 34 -34 34 0 -64z"/>
</g>
</svg>
