<?xml version="1.0" encoding="utf-8"?>
<!-- Generator: Adobe Illustrator 23.0.3, SVG Export Plug-In . SVG Version: 6.00 Build 0)  -->
<svg version="1.1" id="Layer_1" xmlns="http://www.w3.org/2000/svg" xmlns:xlink="http://www.w3.org/1999/xlink" x="0px" y="0px"
	 viewBox="0 0 1690 203" style="enable-background:new 0 0 1690 203;" xml:space="preserve">
<style type="text/css">
	.st0{fill:#FFFFFF;}
	.st1{font-family:'FacebookSans-Regular';}
	.st2{font-size:168px;}
	.st3{letter-spacing:-2;}
</style>
<title>FindUsOn-FB_de-DE-RGB-1775</title>
<g>
	<path class="st0" d="M1588.9,3.9c-53.8,0-97.4,43.6-97.4,97.4c0,48.5,35.4,88.7,81.8,96.1v-0.3v-68.5l-25.3,0v-27.3l25.3,0V79.8
		c0-24.5,15-38,37.2-38c10.7,0,21.3,2.1,21.3,2.1v24.3l-11.8,0c-12.1,0-15.5,7.1-15.5,14.8v18.3l27.3,0l-4.5,27.3h-22.8v68.5v0.3
		c46.4-7.5,81.8-47.7,81.8-96.1C1686.3,47.5,1642.7,3.9,1588.9,3.9z"/>
</g>
<g>
	<text transform="matrix(1 0 0 1 -9.1471 166.8992)" class="st0 st1 st2 st3">Du findest uns auf</text>
</g>
</svg>
